<?xml version="1.0" encoding="UTF-8"?><svg id="a" xmlns="http://www.w3.org/2000/svg" viewBox="0 0 800 600.7"><path d="M220.46,73.65c-8.1,.3-14.66-6.83-23.03-4.66,4.4-20.13,10.43-28.92,32.82-28.52,1.13,3.77,2.43,7.5,3.34,11.33,.91,3.83,1.42,7.74,2.21,12.25,.1-1.48,.18-2.46,.23-3.44,.21-4.04,.05-8.15,.7-12.12,.85-5.19,5.17-8.45,10.27-7.32,6.2,1.38,12.32,3.34,18.23,5.66,8.24,3.24,16.33,6.83,25.26,7.77,1.31,.14,2.63,.29,3.95,.29,57.32,.02,114.63,.03,171.95,.02,9.34,0,17.86-3.26,26.4-6.64,6.97-2.76,14.11-5.23,21.34-7.2,5.61-1.53,9.55,1.58,10.29,7.51,.55,4.39,.64,8.84,.9,12.77,1.81-6.62,3.75-13.72,5.79-21.15,6.13,.61,12.57,.17,18.55,3.04,3.54,1.7,6.49,4.2,8.03,7.7,2.51,5.73,4.48,11.71,6.52,17.19-8.41,1.98-16.18,3.81-23.95,5.63l-.1,.41c1.71,0,3.42,0,5.14,0,3.59,0,7.19-.13,10.77,.02,5.4,.23,7.92,3,8.15,8.47,.32,7.57-1.6,14.72-3.73,21.89-2.62,8.82-5.28,17.66-7.2,26.65-1.19,5.58-1.46,11.45-1.46,17.19-.08,102.06-.02,204.11-.1,306.17-.01,16.26,3.27,31.8,8.76,46.99,2.58,7.14,3.93,14.56,4.25,22.13,.28,6.91-2.06,9.41-9.08,9.6-5.37,.15-10.74,.03-16.18,.68,2.12,.33,4.28,.53,6.36,1.03,2.26,.55,4.48,1.31,6.67,2.1,3.39,1.22,6.75,2.55,10.23,3.87-3.26,14.99-11.09,20.8-31.57,23.17-2.13-6.94-4.24-13.79-6.52-21.22,0,4.68,.37,8.65-.08,12.53-.78,6.78-5.02,9.79-11.75,8.11-6.54-1.63-13.12-3.48-19.29-6.15-12.26-5.29-24.85-7.63-38.21-7.57-48.43,.22-96.85,.31-145.28-.09-16.45-.14-32.02,2.4-46.96,9.31-5.81,2.69-11.94,4.64-18.55,4.36-5.26-.22-7.69-2.14-8.25-7.35-.33-3.07-.18-6.2-.2-9.31,0-1.22,.1-2.44-.26-3.75-1.89,6.85-3.79,13.7-5.71,20.67-14.19,2.61-23.94-4.1-32.76-22.6,7.99-2.64,16.01-5.28,22.99-7.58-1.37,0-4.01,.09-6.64-.02-3.76-.16-7.59-.06-11.24-.8-4.15-.84-5.94-3.5-6.09-7.73-.31-8.71,1.72-17.01,4.4-25.21,3.28-10.02,6.73-20,7.88-30.56,.45-4.13,.82-8.29,.82-12.44,.04-103.47,.06-206.95,0-310.42,0-12.97-3.46-25.32-7.54-37.52-2.66-7.94-5.4-15.9-5.48-24.43-.06-7.3,3.05-10.53,10.42-10.7,4.53-.11,9.06-.02,13.59-.02Zm319.94,228.39c0-70.18-.02-140.35,.05-210.53,0-3.97-1.03-7.44-3.28-10.59-6.63-9.33-14.75-14.87-27.13-14.82-86.54,.32-173.08,.3-259.62,0-10.82-.04-18.35,4.39-24.75,12.25-3.61,4.43-5.57,9.31-5.13,15.13,.25,3.39,.14,6.81,.14,10.21,0,136,0,272.01-.07,408.01,0,4.98,1.34,9.19,4.22,13.17,6.85,9.46,15.25,14.45,27.71,14.29,50.4-.66,100.82-.58,151.23-.61,35.56-.02,71.12,.26,106.68,.27,3.73,0,7.69-.19,11.13-1.43,10.69-3.86,18.82-16.08,18.82-27.38,0-69.33,0-138.65,0-207.98Zm-324.42,224.19c-4.22-2.99-4.57-7.15-4.2-11.48,.39-4.6,.96-9.19,1.41-13.79,1.25-12.96,3.51-25.92,3.55-38.88,.31-104.41,.22-208.82,.21-313.23,0-16.84-2.27-33.5-4.37-50.17-.76-6.01-3.2-12.19,.64-18.14-6.03-.47-7.22,.54-7.08,6.29,.06,2.72,.48,5.44,.87,8.13,1.74,11.93,4.16,23.8,5.15,35.79,1.06,12.88,1.07,25.87,1.09,38.82,.11,92.5,.12,184.99,.13,277.49,0,17.31-1.43,34.5-4.32,51.59-1.11,6.59-1.89,13.26-2.28,19.93-.33,5.7,2.77,8.13,9.2,7.67ZM548.53,80.01c.45,2.82,1.44,5.58,1.21,8.23-.66,7.61-1.98,15.16-2.73,22.76-1.03,10.42-2.53,20.87-2.55,31.32-.19,106.3-.26,212.61,.05,318.91,.04,14.57,2.48,29.13,3.56,43.71,.55,7.48,3.33,15.35-3,22.05,6.19,.3,8.99-2.2,8.93-8.05-.04-3.86-.13-7.78-.8-11.56-3.37-18.91-5.38-37.93-5.4-57.14-.05-37.26-.08-74.53,0-111.79,.14-67.05,.21-134.09,.72-201.14,.08-10.68,2.25-21.36,3.55-32.03,.76-6.26,2-12.47,2.48-18.75,.41-5.37-1.12-6.56-6.01-6.54ZM243.57,57.96c4.06,0,8.02-.51,11.8,.09,16.51,2.62,33.03,4.81,49.8,4.79,51.35-.05,102.7,.23,154.05-.19,13.24-.11,26.46-2.41,39.71-3.55,6.31-.54,12.56-3.5,19.01-.49-.46-5.18-1.81-6.5-6.79-6.1-3.55,.28-7.11,.82-10.6,1.56-12.1,2.57-24.24,4.79-36.66,4.8-50.31,.04-100.62-.1-150.93,.13-18.77,.08-37.3-1.18-55.58-5.66-3.41-.83-7.11-.85-10.64-.64-3.16,.19-4.23,2.67-3.15,5.27Zm274.12,488.84c-2.44,.45-4.68,1.27-6.89,1.19-4.23-.16-8.47-.64-12.64-1.34-13.97-2.32-27.94-4.31-42.17-4.28-49.56,.1-99.11,.13-148.67-.02-14.9-.04-29.52,1.97-44.15,4.34-6.53,1.06-13.15,2.81-19.73,.03-.65,4,1.17,6.54,5,6.39,3.84-.15,7.7-.66,11.46-1.42,13.69-2.78,27.38-5.39,41.43-5.38,54,.04,108-.11,162,.19,9.08,.05,18.18,1.73,27.22,2.99,6.32,.88,12.55,2.46,18.85,3.5,5.31,.88,9.34-1.14,8.26-6.21Zm23.54-478.86c5.71-.22,10.42-3.9,11.32-8.25,.63-3.06-.54-5.31-3.71-6.82,1.78,6.92-1.52,11.4-7.62,15.06Zm-328.59-15.37c-3.89,3.01-4.6,5.09-3.4,8.13,1.41,3.55,5.89,6.31,9.89,5.97-4.61-3.33-8.12-7.16-6.49-14.1Zm332.21,503.6c-6.05-1.5-9.18-5.78-11.4-11.11-.32,4.11-.32,8.09,3.24,10.75,2.45,1.83,5.28,1.92,8.16,.36ZM227.85,61.18c1.79-4.41,.68-10.01-2.09-12.34-2.58-2.18-5.42-2.53-8.16-.75,6.94,1.46,9.22,6.51,10.25,13.09Zm-11.67,494.38c3.84,2.01,6.76,1.55,9.41-1.15,2.5-2.55,3.46-6.1,2.18-8.54-2.26,4.95-5.66,8.52-11.59,9.69ZM543.52,47.52c-3.48-1.23-6.44-.4-8.84,2.19-2.05,2.22-2.33,6.02-.76,9.05,.82-5.86,3.54-9.93,9.6-11.24Zm.04,492.11c3.87,2.71,5.97,6.33,5.98,11.22,2.48-1.49,3.56-3.58,2.61-5.86-1.52-3.66-5.13-4.49-8.59-5.36Zm-331.8,11.07c-.84-5.34,1.55-8.63,5.62-10.99-3.95,.38-7,1.97-8.51,5.64-.98,2.36,.7,3.63,2.89,5.35Z"/><path d="M227.67,301.68c0-69.14,.03-138.27-.04-207.41,0-6.97,2.8-12.4,7.89-16.8,3.91-3.38,8.63-4.39,13.7-4.39,60.91,.03,121.82,.04,182.72,.04,26.67,0,53.35,.29,80.01-.18,13.09-.23,21.76,12.04,21.75,21.7-.16,137.89-.15,275.79-.04,413.68,0,9.93-6.7,20.81-16.6,22.93-1.73,.37-3.56,.42-5.34,.42-87.77,.02-175.54,.02-263.3,0-10.76,0-20.71-9.94-20.72-20.88-.08-59.87-.08-119.74-.11-179.6,0-9.84,0-19.67,0-29.51h.09Zm286.79,209.92V93.39H247V511.6h267.46Z"/></svg>